<?xml version="1.0" encoding="utf-8"?>
<!-- Generator: Adobe Illustrator 27.0.0, SVG Export Plug-In . SVG Version: 6.00 Build 0)  -->
<svg version="1.1" id="Layer_1" xmlns="http://www.w3.org/2000/svg" xmlns:xlink="http://www.w3.org/1999/xlink" x="0px" y="0px"
	 viewBox="0 0 20 20" style="enable-background:new 0 0 20 20;" xml:space="preserve">
<style type="text/css">
	.st0{fill:#13B886;}
</style>
<path class="st0" d="M0,3.8c0-1.4,1.1-2.5,2.5-2.5l0,0h15c1.4,0,2.5,1.1,2.5,2.5v12.5c0,1.4-1.1,2.5-2.5,2.5h-15
	c-1.4,0-2.5-1.1-2.5-2.5L0,3.8z M1.3,15v1.2c0,0.7,0.6,1.2,1.2,1.2h15c0.7,0,1.2-0.6,1.2-1.2v-4.4L14,9.4c-0.2-0.1-0.5-0.1-0.7,0.1
	l-4.6,4.6L5.3,12c-0.2-0.2-0.6-0.1-0.8,0.1L1.3,15z M7.5,6.9c0-1-0.8-1.9-1.9-1.9S3.8,5.8,3.8,6.9s0.8,1.9,1.9,1.9S7.5,7.9,7.5,6.9"
	/>
</svg>
